<svg width="24" height="25" viewBox="0 0 24 25" fill="none" xmlns="http://www.w3.org/2000/svg">
<g opacity="0.25">
<path fill-rule="evenodd" clip-rule="evenodd" d="M3.67294 4.408C3.67294 4.11657 3.91647 3.88 4.21529 3.88H5.85412C5.78235 4.17029 5.74588 4.46857 5.74588 4.76572C5.74588 5.21486 6.12118 5.57943 6.58235 5.57943H16.3706C16.8318 5.57943 17.2071 5.21486 17.2071 4.76572C17.2071 4.46972 17.1706 4.17143 17.0988 3.88H18.7376C19.0365 3.88 19.28 4.11657 19.28 4.408V21.9874C19.28 22.2789 19.0365 22.5154 18.7376 22.5154H4.21529C3.91647 22.5154 3.67294 22.2789 3.67294 21.9874V4.408ZM9.61529 2.62742H13.3376C14.2247 2.62742 15.0341 3.16342 15.3694 3.95199H7.58352C7.91999 3.16342 8.72823 2.62742 9.61529 2.62742ZM18.7376 2.25257H16.2165C15.48 1.456 14.4353 1 13.3376 1H9.61529C8.51765 1 7.47294 1.456 6.73647 2.25257H4.21529C2.99412 2.25257 2 3.21943 2 4.408V21.9874C2 23.176 2.99412 24.1429 4.21529 24.1429H18.7376C19.9588 24.1429 20.9529 23.176 20.9529 21.9874V4.408C20.9529 3.21943 19.9588 2.25257 18.7376 2.25257Z" fill="white"/>
<path fill-rule="evenodd" clip-rule="evenodd" d="M15.3946 16.6871H7.4805C7.01932 16.6871 6.6452 17.0516 6.6452 17.5008C6.6452 17.9488 7.01932 18.3145 7.4805 18.3145H15.3946C15.8558 18.3145 16.2311 17.9488 16.2311 17.5008C16.2311 17.0516 15.8558 16.6871 15.3946 16.6871Z" fill="white"/>
<path fill-rule="evenodd" clip-rule="evenodd" d="M16.44 9.23509C16.38 8.83738 16.0235 8.53909 15.6117 8.53909H13.8659C13.4059 8.53909 13.0306 8.90366 13.0306 9.35281C13.0306 9.72081 13.2823 10.0328 13.6282 10.1334L12.3035 11.4225L10.3211 9.49452C10.1635 9.34024 9.95291 9.25566 9.72938 9.25566C9.50585 9.25566 9.29644 9.34024 9.1388 9.49452L6.65762 11.9094C6.33174 12.2259 6.33174 12.7414 6.65762 13.0591C6.81409 13.2122 7.02468 13.2979 7.24821 13.2979C7.47174 13.2979 7.68233 13.2122 7.83997 13.0591L9.72938 11.2191L11.7117 13.1482C11.8706 13.3025 12.08 13.3871 12.3035 13.3871C12.5282 13.3871 12.7376 13.3025 12.8953 13.1482L14.8106 11.2842C14.9129 11.6214 15.2341 11.8671 15.6129 11.8671C16.0729 11.8671 16.4494 11.5014 16.4494 11.0534V10.1997C16.4494 9.29566 16.4494 9.29566 16.44 9.23509Z" fill="white"/>
</g>
</svg>
