<svg width="22" height="24" viewBox="0 0 22 24" fill="none" xmlns="http://www.w3.org/2000/svg">
<path fill-rule="evenodd" clip-rule="evenodd" d="M8.5 1.5C8.5 1.10218 8.65803 0.720644 8.93934 0.43934C9.22064 0.158035 9.60217 0 10 0L13 0C13.3978 0 13.7794 0.158035 14.0607 0.43934C14.342 0.720644 14.5 1.10218 14.5 1.5C14.5 1.89782 14.342 2.27936 14.0607 2.56066C13.7794 2.84196 13.3978 3 13 3V3.105C14.5048 3.32051 15.9443 3.86214 17.218 4.692L18.58 3.33C18.683 3.21947 18.8072 3.13082 18.9452 3.06933C19.0832 3.00784 19.2322 2.97478 19.3832 2.97211C19.5343 2.96945 19.6843 2.99723 19.8244 3.05382C19.9645 3.1104 20.0917 3.19461 20.1986 3.30144C20.3054 3.40827 20.3896 3.53552 20.4462 3.6756C20.5028 3.81569 20.5306 3.96573 20.5279 4.11678C20.5252 4.26784 20.4922 4.41681 20.4307 4.55481C20.3692 4.69281 20.2805 4.81701 20.17 4.92L18.97 6.12C20.6295 7.80064 21.6739 9.99171 21.9345 12.3392C22.195 14.6867 21.6565 17.0534 20.4059 19.0571C19.1554 21.0607 17.2658 22.5842 15.0425 23.3814C12.8192 24.1785 10.392 24.2028 8.15322 23.4503C5.91441 22.6978 3.9947 21.2125 2.70426 19.2343C1.41382 17.256 0.82804 14.9005 1.04156 12.5483C1.25507 10.1961 2.25541 7.98455 3.88095 6.27103C5.50649 4.55751 7.66228 3.44209 10 3.105V3C9.60217 3 9.22064 2.84196 8.93934 2.56066C8.65803 2.27936 8.5 1.89782 8.5 1.5ZM19.75 13.5C19.75 15.688 18.8808 17.7865 17.3336 19.3336C15.7865 20.8808 13.688 21.75 11.5 21.75C9.31196 21.75 7.21354 20.8808 5.66637 19.3336C4.11919 17.7865 3.25 15.688 3.25 13.5C3.25 11.312 4.11919 9.21354 5.66637 7.66637C7.21354 6.11919 9.31196 5.25 11.5 5.25C13.688 5.25 15.7865 6.11919 17.3336 7.66637C18.8808 9.21354 19.75 11.312 19.75 13.5ZM12.625 8.625C12.625 8.32663 12.5065 8.04048 12.2955 7.8295C12.0845 7.61853 11.7984 7.5 11.5 7.5C11.2016 7.5 10.9155 7.61853 10.7045 7.8295C10.4935 8.04048 10.375 8.32663 10.375 8.625V13.965L10.705 14.295L14.086 17.676C14.189 17.7865 14.3132 17.8752 14.4512 17.9367C14.5892 17.9982 14.7382 18.0312 14.8892 18.0339C15.0403 18.0366 15.1903 18.0088 15.3304 17.9522C15.4705 17.8956 15.5977 17.8114 15.7046 17.7046C15.8114 17.5977 15.8956 17.4705 15.9522 17.3304C16.0088 17.1903 16.0366 17.0403 16.0339 16.8892C16.0312 16.7382 15.9982 16.5892 15.9367 16.4512C15.8752 16.3132 15.7865 16.189 15.676 16.086L12.625 13.0335V8.625Z" fill="white"/>
</svg>
