<svg width="9" height="8" viewBox="0 0 9 8" fill="none" xmlns="http://www.w3.org/2000/svg">
<path d="M4.94027 4L8.01644 0.333203C8.068 0.272266 8.02465 0.179688 7.94496 0.179688H7.0098C6.95472 0.179688 6.90199 0.204297 6.86566 0.246484L4.32855 3.27109L1.79144 0.246484C1.75629 0.204297 1.70355 0.179688 1.6473 0.179688H0.712145C0.632458 0.179688 0.589098 0.272266 0.640661 0.333203L3.71683 4L0.640661 7.6668C0.62911 7.68038 0.6217 7.69699 0.61931 7.71466C0.61692 7.73233 0.61965 7.75031 0.627177 7.76648C0.634703 7.78264 0.64671 7.79631 0.661771 7.80585C0.676832 7.81539 0.694316 7.82041 0.712145 7.82031H1.6473C1.70238 7.82031 1.75511 7.7957 1.79144 7.75352L4.32855 4.72891L6.86566 7.75352C6.90082 7.7957 6.95355 7.82031 7.0098 7.82031H7.94496C8.02465 7.82031 8.068 7.72774 8.01644 7.6668L4.94027 4Z" fill="#8C8C8C"/>
</svg>
