<svg width="10" height="10" viewBox="0 0 10 10" fill="none" xmlns="http://www.w3.org/2000/svg">
<path d="M4.64844 0.78125L5.35156 0.78125C5.41406 0.78125 5.44531 0.8125 5.44531 0.875L5.44531 9.125C5.44531 9.1875 5.41406 9.21875 5.35156 9.21875H4.64844C4.58594 9.21875 4.55469 9.1875 4.55469 9.125L4.55469 0.875C4.55469 0.8125 4.58594 0.78125 4.64844 0.78125Z" fill="white"/>
<path d="M1.0625 4.55469L8.9375 4.55469C9 4.55469 9.03125 4.58594 9.03125 4.64844V5.35156C9.03125 5.41406 9 5.44531 8.9375 5.44531L1.0625 5.44531C1 5.44531 0.96875 5.41406 0.96875 5.35156L0.96875 4.64844C0.96875 4.58594 1 4.55469 1.0625 4.55469Z" fill="white"/>
</svg>
