<svg width="22" height="24" viewBox="0 0 22 24" fill="none" xmlns="http://www.w3.org/2000/svg">
<path fill-rule="evenodd" clip-rule="evenodd" d="M7.99998 1.5C7.99998 1.10218 8.15802 0.720644 8.43932 0.43934C8.72063 0.158035 9.10216 0 9.49998 0L12.5 0C12.8978 0 13.2793 0.158035 13.5606 0.43934C13.8419 0.720644 14 1.10218 14 1.5C14 1.89782 13.8419 2.27936 13.5606 2.56066C13.2793 2.84196 12.8978 3 12.5 3V3.105C14.0048 3.32051 15.4443 3.86214 16.718 4.692L18.08 3.33C18.183 3.21947 18.3072 3.13082 18.4452 3.06933C18.5832 3.00784 18.7321 2.97478 18.8832 2.97211C19.0343 2.96945 19.1843 2.99723 19.3244 3.05382C19.4645 3.1104 19.5917 3.19461 19.6985 3.30144C19.8054 3.40827 19.8896 3.53552 19.9462 3.6756C20.0027 3.81569 20.0305 3.96573 20.0279 4.11678C20.0252 4.26784 19.9921 4.41681 19.9307 4.55481C19.8692 4.69281 19.7805 4.81701 19.67 4.92L18.47 6.12C20.1295 7.80064 21.1739 9.99171 21.4345 12.3392C21.695 14.6867 21.1565 17.0534 19.9059 19.0571C18.6553 21.0607 16.7657 22.5842 14.5424 23.3814C12.3191 24.1785 9.89201 24.2028 7.6532 23.4503C5.41439 22.6978 3.49468 21.2125 2.20425 19.2343C0.913809 17.256 0.328025 14.9005 0.54154 12.5483C0.755056 10.1961 1.7554 7.98455 3.38094 6.27103C5.00648 4.55751 7.16227 3.44209 9.49998 3.105V3C9.10216 3 8.72063 2.84196 8.43932 2.56066C8.15802 2.27936 7.99998 1.89782 7.99998 1.5ZM19.25 13.5C19.25 15.688 18.3808 17.7865 16.8336 19.3336C15.2864 20.8808 13.188 21.75 11 21.75C8.81195 21.75 6.71353 20.8808 5.16635 19.3336C3.61918 17.7865 2.74998 15.688 2.74998 13.5C2.74998 11.312 3.61918 9.21354 5.16635 7.66637C6.71353 6.11919 8.81195 5.25 11 5.25C13.188 5.25 15.2864 6.11919 16.8336 7.66637C18.3808 9.21354 19.25 11.312 19.25 13.5ZM12.125 8.625C12.125 8.32663 12.0065 8.04048 11.7955 7.8295C11.5845 7.61853 11.2984 7.5 11 7.5C10.7016 7.5 10.4155 7.61853 10.2045 7.8295C9.99351 8.04048 9.87498 8.32663 9.87498 8.625V13.965L10.205 14.295L13.586 17.676C13.689 17.7865 13.8132 17.8752 13.9512 17.9367C14.0892 17.9982 14.2381 18.0312 14.3892 18.0339C14.5403 18.0366 14.6903 18.0088 14.8304 17.9522C14.9705 17.8956 15.0977 17.8114 15.2045 17.7046C15.3114 17.5977 15.3956 17.4705 15.4522 17.3304C15.5087 17.1903 15.5365 17.0403 15.5339 16.8892C15.5312 16.7382 15.4981 16.5892 15.4367 16.4512C15.3752 16.3132 15.2865 16.189 15.176 16.086L12.125 13.0335V8.625Z" fill="white" fill-opacity="0.5"/>
</svg>
