<svg width="41" height="42" viewBox="0 0 41 42" fill="none" xmlns="http://www.w3.org/2000/svg">
<g clip-path="url(#clip0_1_267)">
<rect y="0.5" width="41" height="41" rx="7.32143" fill="white"/>
<path fill-rule="evenodd" clip-rule="evenodd" d="M17.7366 11.8108L9.63897 6.88495L12.5342 15.8479L2.72975 17.4861L8.37094 20.916L1.9813 24.4942L5.93277 25.4771C3.10406 32.2396 3.43103 39.5054 7.51074 44.9047C14.272 53.8529 28.7802 54.2859 39.9157 45.8719C51.0512 37.4579 54.5972 23.3831 47.836 14.4349C43.4669 8.65265 35.863 6.42603 28.0246 7.84459L28.003 1.83969L23.2537 8.65125L21.1666 2.86009L17.7366 11.8108Z" fill="#F30C44"/>
<circle cx="16.1794" cy="32.4146" r="2.1797" transform="rotate(-37.0747 16.1794 32.4146)" fill="white"/>
<circle cx="32.9155" cy="19.768" r="2.1797" transform="rotate(-37.0747 32.9155 19.768)" fill="white"/>
<path d="M27.926 23.1218C28.3052 23.0871 28.6453 23.3672 28.6322 23.7478C28.6082 24.4461 28.4509 25.1356 28.1666 25.7784C27.789 26.6322 27.1999 27.3756 26.4549 27.9382C25.7099 28.5008 24.8337 28.864 23.9092 28.9935C23.2131 29.0911 22.5069 29.0537 21.8286 28.8857C21.459 28.7942 21.2827 28.3905 21.4198 28.0352V28.0352C21.5569 27.68 21.956 27.5094 22.3291 27.5853C22.7846 27.6779 23.2542 27.6929 23.7179 27.6279C24.4101 27.5309 25.0661 27.2589 25.6238 26.8377C26.1816 26.4165 26.6227 25.8599 26.9054 25.2207C27.0948 24.7925 27.2088 24.3368 27.2444 23.8733C27.2736 23.4936 27.5468 23.1565 27.926 23.1218V23.1218Z" fill="white"/>
</g>
<defs>
<clipPath id="clip0_1_267">
<rect y="0.5" width="41" height="41" rx="7.32143" fill="white"/>
</clipPath>
</defs>
</svg>
